<?xml version="1.0" encoding="utf-8"?>
<!-- Generator: Adobe Illustrator 16.0.2, SVG Export Plug-In . SVG Version: 6.00 Build 0)  -->
<!DOCTYPE svg PUBLIC "-//W3C//DTD SVG 1.1//EN" "http://www.w3.org/Graphics/SVG/1.1/DTD/svg11.dtd">
<svg version="1.1" xmlns="http://www.w3.org/2000/svg" xmlns:xlink="http://www.w3.org/1999/xlink" x="0px" y="0px" width="200px"
	 height="200px" viewBox="0 0 200 200" enable-background="new 0 0 200 200" xml:space="preserve">
<g id="oceans">
	<circle fill="#0F4044" cx="100" cy="100" r="100"/>
</g>
<g id="continents">
	<circle display="none" fill="#6BB742" cx="100" cy="100" r="100"/>
	<path fill="#E0BA4F" d="M196.771,125.304c-2.585,9.917-6.655,19.235-11.958,27.702c-2.756,4.4-5.845,8.571-9.231,12.478
		C186,140,152.5,101,196.771,125.304z"/>
	<path id="africa" fill="#6BB742" d="M65.416,28.955c7.107-9.544,34.885,1.286,60.275,20.786
		c13.076,10.042,7.075,43.997-8.198,76.082c-2.279,4.788-0.403,13.786-8.96,8.839c-7.232-64.567-49.252-52.273-53.379-71.837
		C54.916,50.878,57.861,39.1,65.416,28.955z"/>
	<path id="antartica" fill="#99D8DC" d="M160.682,179.49C143.854,192.356,122.819,200,100,200c-8.388,0-16.534-1.032-24.319-2.978
		c-19.309-4.824,18.419-6.548,25.369-17.785S111,164,160.682,179.49z"/>
	<path id="north_america" fill="#6BB742" d="M41.775,181.311C16.479,163.164,0,133.507,0,100c0-5.36,0.422-10.621,1.234-15.752
		C7.25,147.25,33,109.5,41.775,181.311z"/>
	<path id="asia_x2F_India" fill="#6BB742" d="M152.263,14.728c14.288,8.776,26.202,21.042,34.555,35.611
		c2.482,4.331-6.402,9.094-19.891,12.714C134.845,71.662,161.5,39.5,152.263,14.728z"/>
	<path id="europe" fill="#6BB742" d="M45.391,16.214C61.09,5.96,79.849,0,100,0c7.667,0,15.133,0.863,22.305,2.497
		c11.828,2.694,10,6.187,1.455,9.528C109.352,17.657,90,5,56.5,23.073C47,29.5,37.576,21.318,45.391,16.214z"/>
	<path id="uk" fill="#6BB742" d="M21.747,37.732c3.381-4.243,7.1-8.205,11.115-11.845c9.609-8.71-4.487,4.743-5.675,8.053
		C24.75,40.75,15.505,45.566,21.747,37.732z"/>
</g>
<g id="locations">
	<path id="pin_uk" display="none" fill="#C9300B" d="M21.75,7.417c-4.143,0-7.5,3.358-7.5,7.5c0,0.263,0.014,0.523,0.041,0.779
		c0.425,8.375,7.459,13.634,7.459,13.634s6.948-4.863,7.452-13.584c0.03-0.272,0.048-0.548,0.048-0.829
		C29.25,10.774,25.892,7.417,21.75,7.417z M21.751,19.667c-2.21,0-4.001-1.792-4.001-4s1.791-4,4.001-4c2.208,0,3.999,1.792,3.999,4
		S23.959,19.667,21.751,19.667z"/>
	<path id="pin_sydney" fill="#C9300B" d="M198.451,165.009c2.11-3.564,0.932-8.165-2.633-10.274
		c-0.227-0.135-0.457-0.255-0.69-0.363c-7.424-3.901-15.533-0.527-15.533-0.527s0.645,8.456,7.893,13.333
		c0.22,0.165,0.447,0.321,0.688,0.464C191.74,169.751,196.341,168.572,198.451,165.009z M187.91,158.768
		c1.126-1.901,3.579-2.529,5.479-1.404s2.53,3.578,1.404,5.48c-1.126,1.9-3.58,2.528-5.479,1.403
		C187.413,163.122,186.784,160.668,187.91,158.768z"/>
	<path id="pin_nyc" fill="#C9300B" d="M9.068,153.944c2.107,3.567,6.706,4.751,10.272,2.645c0.227-0.134,0.443-0.277,0.65-0.431
		c6.997-4.625,7.946-13.356,7.946-13.356s-7.721-3.51-15.486,0.491c-0.251,0.113-0.497,0.238-0.738,0.381
		C8.146,145.779,6.962,150.379,9.068,153.944z M19.616,147.715c1.124,1.903,0.492,4.356-1.41,5.479
		c-1.901,1.122-4.354,0.492-5.479-1.411c-1.123-1.901-0.49-4.354,1.411-5.478C16.04,145.183,18.493,145.813,19.616,147.715z"/>
	<path id="pin_uk_1_" fill="#C9300B" d="M15.351,13.028c-3.042,2.812-3.229,7.557-0.417,10.599c0.178,0.193,0.365,0.374,0.559,0.544
		c5.996,5.862,14.731,4.95,14.731,4.95s1.802-8.288-3.748-15.035c-0.163-0.22-0.337-0.435-0.527-0.641
		C23.137,10.404,18.392,10.217,15.351,13.028z M23.666,22.024c-1.624,1.5-4.155,1.4-5.653-0.222c-1.499-1.622-1.4-4.152,0.223-5.653
		c1.622-1.499,4.153-1.398,5.651,0.224C25.387,17.994,25.288,20.524,23.666,22.024z"/>
</g>
</svg>
